<?xml version="1.0" encoding="UTF-8"?>
<svg id="Calque_1" xmlns="http://www.w3.org/2000/svg" viewBox="0 0 385.5 154.34">
  <defs>
    <style>
      .cls-1 {
        fill: #edbb03;
      }

      .cls-2 {
        fill: #1d1d1b;
      }

      .cls-3 {
        fill: #154390;
      }

      .cls-4 {
        fill: #a51548;
      }
    </style>
  </defs>
  <path class="cls-2" d="M0,154.34L18.7,37.16h30.26l10.51,62.93,11-62.93h27.45l-18.38,117.18h-30.1l-11.16-60.68-10.35,60.68H0Z"/>
  <path class="cls-2" d="M95.99,154.34l18.54-117.18h32.75l-18.62,117.18h-32.67Z"/>
  <path class="cls-3" d="M143.27,154.34l18.62-117.18h32.67l-7.71,48.96,25.84-48.96h33.31l-32.51,54.1,14.77,63.09h-35.48l-8.27-53.29-8.51,53.29h-32.75Z"/>
  <path class="cls-4" d="M233.48,154.34l18.62-117.18h58.03l-4.5,28.41h-25.28l-2.49,14.93h22.88l-4.25,27.45h-22.88l-2.65,16.13h25.36l-4.82,30.26h-58.03Z"/>
  <path class="cls-1" d="M292.8,154.34l44.06-117.18h38.61l8.27,117.18h-33.07l.16-17.26h-19.34l-5.14,17.26h-33.55ZM336.86,11c0-3,1.1-5.58,3.29-7.75,2.19-2.17,4.82-3.25,7.87-3.25s5.66,1.08,7.83,3.25c2.17,2.17,3.25,4.75,3.25,7.75s-1.08,5.75-3.25,7.95c-2.17,2.19-4.78,3.29-7.83,3.29s-5.54-1.11-7.79-3.33c-2.25-2.22-3.37-4.86-3.37-7.91ZM338.39,113.41h13.08l.4-43.42-13.48,43.42ZM363.35,11c0-3,1.1-5.58,3.29-7.75,2.19-2.17,4.82-3.25,7.87-3.25s5.64,1.08,7.79,3.25c2.14,2.17,3.21,4.75,3.21,7.75s-1.07,5.75-3.21,7.95c-2.14,2.19-4.74,3.29-7.79,3.29s-5.61-1.11-7.83-3.33c-2.22-2.22-3.33-4.86-3.33-7.91Z"/>
</svg>